<?xml version="1.0" standalone="no"?>
<!DOCTYPE svg PUBLIC "-//W3C//DTD SVG 20010904//EN"
 "http://www.w3.org/TR/2001/REC-SVG-20010904/DTD/svg10.dtd">
<svg version="1.0" xmlns="http://www.w3.org/2000/svg"
 width="300.000000pt" height="40.000000pt" viewBox="0 0 300.000000 40.000000"
 preserveAspectRatio="xMidYMid meet">
<metadata>
Created by potrace 1.10, written by Peter Selinger 2001-2011
</metadata>
<g transform="translate(0.000000,40.000000) scale(0.100000,-0.100000)"
fill="#000000" stroke="none">
<path d="M45 349 c-4 -5 3 -9 13 -9 38 0 43 -20 29 -140 -11 -97 -15 -114 -32
-121 -13 -5 -1 -8 35 -8 44 0 50 2 32 10 -23 9 -24 10 -17 111 4 57 9 104 10
106 1 1 11 -21 23 -50 41 -106 67 -163 77 -167 5 -1 31 46 58 105 27 60 53
113 58 119 6 6 9 -31 7 -100 -3 -105 -4 -110 -28 -122 -22 -11 -18 -13 45 -12
49 0 64 3 49 9 -27 11 -34 46 -34 166 0 87 1 94 20 94 11 0 20 4 20 10 0 15
-83 5 -91 -11 -4 -8 -24 -54 -45 -104 -46 -108 -50 -114 -58 -79 -4 15 -23 58
-42 96 -18 39 -34 76 -34 84 0 8 -3 14 -7 15 -5 0 -25 2 -45 4 -21 2 -40 0
-43 -6z"/>
<path d="M808 350 c21 -9 22 -14 22 -135 l0 -125 -25 0 c-14 0 -25 -4 -25 -10
0 -6 30 -10 70 -10 39 0 70 4 70 10 0 5 -10 9 -22 7 -22 -2 -23 2 -23 63 l0
65 80 0 80 0 0 -60 c0 -58 -1 -60 -28 -63 -15 -2 -25 -8 -22 -13 8 -13 135
-12 135 1 0 6 -8 10 -17 8 -16 -3 -18 9 -21 125 -2 122 -2 127 18 127 11 0 20
5 20 10 0 6 -28 10 -65 10 -37 0 -65 -4 -65 -10 0 -5 11 -10 26 -10 24 0 25
-2 22 -52 l-3 -52 -80 0 -80 0 0 50 c0 43 3 49 23 52 49 7 18 22 -45 21 -51 0
-62 -3 -45 -9z"/>
<path d="M2178 350 c22 -9 23 -12 20 -137 -3 -116 -5 -128 -20 -125 -10 2 -18
-2 -18 -8 0 -6 36 -10 95 -10 88 0 98 2 120 25 36 35 34 86 -5 119 -29 24 -30
25 -10 36 27 15 26 63 -2 90 -19 17 -34 20 -112 19 -66 0 -85 -3 -68 -9z m154
-23 c26 -41 -6 -90 -56 -85 -28 3 -31 7 -34 41 -4 50 13 71 52 63 16 -4 34
-12 38 -19z m9 -123 c25 -23 25 -74 -2 -103 -16 -17 -30 -21 -57 -19 l-37 3
-3 74 -3 74 41 -6 c23 -3 50 -13 61 -23z"/>
<path d="M1308 343 c-20 -5 -25 -23 -7 -23 7 0 10 -39 7 -123 l-3 -123 47 -2
c37 -2 53 3 68 18 43 43 10 114 -51 112 l-34 -1 3 74 c2 41 0 74 -5 74 -4 -1
-16 -3 -25 -6z m84 -170 c32 -29 14 -93 -28 -93 -17 0 -36 43 -29 65 3 8 7 22
10 30 6 20 24 19 47 -2z"/>
<path d="M2444 339 c-8 -14 11 -33 25 -25 16 10 13 36 -3 36 -8 0 -18 -5 -22
-11z"/>
<path d="M2538 343 c-20 -5 -25 -23 -7 -23 7 0 10 -39 7 -123 l-3 -123 44 -2
c60 -2 91 19 91 61 0 17 -4 37 -8 44 -12 19 -56 32 -75 22 -15 -9 -17 -2 -17
71 0 44 -3 79 -7 79 -5 -1 -16 -3 -25 -6z m86 -169 c32 -31 7 -100 -33 -92
-16 3 -28 66 -17 94 7 19 31 18 50 -2z"/>
<path d="M2710 335 c-19 -11 -21 -14 -7 -15 15 0 17 -13 17 -120 0 -102 -2
-120 -16 -120 -8 0 -13 -4 -10 -8 2 -4 24 -6 47 -4 32 3 38 7 26 14 -15 8 -17
28 -17 138 0 72 -3 130 -7 130 -5 -1 -19 -7 -33 -15z"/>
<path d="M440 198 c0 -5 6 -8 13 -8 14 0 65 -74 74 -108 7 -28 -12 -52 -39
-49 -12 1 -23 -4 -25 -10 -3 -8 5 -13 21 -13 30 0 61 38 104 128 l30 62 -23 0
c-17 0 -22 -5 -18 -18 6 -24 -14 -75 -27 -67 -6 3 -17 20 -26 37 -12 24 -13
32 -4 38 7 5 -7 9 -34 11 -25 2 -46 1 -46 -3z"/>
<path d="M2844 195 c-33 -13 -44 -32 -44 -69 0 -49 73 -74 116 -40 19 15 19
15 -1 11 -11 -3 -27 -8 -36 -11 -16 -7 -49 16 -49 35 0 5 15 9 34 9 55 0 74
44 29 68 -13 7 -28 6 -49 -3z m41 -30 c0 -14 -8 -21 -27 -23 -30 -4 -38 14
-16 36 18 18 43 10 43 -13z"/>
<path d="M1161 174 c-26 -33 -27 -58 -1 -84 24 -24 82 -27 100 -5 15 17 7 19
-21 5 -13 -8 -25 -7 -39 0 -30 16 -25 40 8 40 16 0 36 6 46 13 15 11 17 17 7
35 -17 33 -73 30 -100 -4z m72 2 c7 -19 -12 -36 -40 -36 -27 0 -29 7 -6 32 19
21 39 23 46 4z"/>
<path d="M1480 187 c-21 -8 -22 -11 -7 -14 12 -3 17 -15 17 -43 0 -27 -6 -42
-17 -49 -14 -8 -6 -10 32 -10 28 1 42 3 33 6 -13 3 -18 15 -18 43 0 41 15 59
33 41 17 -17 27 -13 27 8 0 26 -15 34 -38 22 -11 -6 -23 -6 -28 -2 -5 5 -20 4
-34 -2z"/>
<path d="M1621 174 c-25 -32 -26 -52 -5 -82 18 -26 70 -30 100 -7 22 17 15 19
-19 6 -18 -7 -30 -5 -46 5 -30 22 -26 34 12 34 46 0 61 13 53 44 -9 37 -66 37
-95 0z m67 -6 c-2 -17 -11 -24 -30 -26 -31 -4 -36 9 -12 32 23 24 46 20 42 -6z"/>
<path d="M1740 190 c0 -5 6 -10 14 -10 8 0 24 -25 37 -55 12 -30 28 -55 34
-55 6 0 19 17 29 38 l19 37 18 -42 c10 -24 21 -43 23 -43 3 0 19 27 36 60 17
33 35 60 41 60 5 0 7 5 4 10 -8 13 -55 13 -55 1 0 -5 5 -11 11 -13 8 -3 6 -15
-6 -38 -17 -32 -18 -33 -31 -15 -17 22 -18 55 -3 55 5 0 7 5 4 10 -8 13 -65
13 -65 1 0 -5 5 -11 12 -13 9 -3 6 -14 -9 -38 l-21 -33 -16 31 c-20 38 -20 42
0 42 8 0 12 5 9 10 -3 6 -24 10 -46 10 -21 0 -39 -4 -39 -10z"/>
<path d="M2435 190 c-17 -7 -17 -9 -2 -9 14 -1 17 -10 17 -50 0 -39 -4 -51
-17 -54 -10 -3 2 -5 27 -5 25 0 39 2 33 5 -9 3 -13 26 -13 64 0 61 -5 66 -45
49z"/>
</g>
</svg>
